<svg width="17" height="17" viewBox="0 0 17 17" fill="none" xmlns="http://www.w3.org/2000/svg">
<path d="M15.6671 14.8545L11.9171 11.1045C12.7608 9.85453 13.1983 8.29203 12.9796 6.60453C12.5733 3.72953 10.2296 1.41703 7.38581 1.04203C3.13581 0.510776 -0.457943 4.10453 0.0733065 8.35453C0.448307 11.1983 2.76081 13.542 5.63581 13.9483C7.32331 14.167 8.88581 13.7295 10.1671 12.8858L13.8858 16.6358C14.3858 17.1045 15.1671 17.1045 15.6671 16.6358C16.1358 16.1358 16.1358 15.3545 15.6671 14.8545ZM2.51081 7.47953C2.51081 5.29203 4.29206 3.47953 6.51081 3.47953C8.69831 3.47953 10.5108 5.29203 10.5108 7.47953C10.5108 9.69828 8.69831 11.4795 6.51081 11.4795C4.29206 11.4795 2.51081 9.69828 2.51081 7.47953Z" fill="#2196F3"/>
</svg>
